<?xml version="1.0" encoding="UTF-8" standalone="no"?>
<svg
   id="svg8"
   version="1.1"
   viewBox="0 0 139.62643 93.440224"
   height="93.440224mm"
   width="139.62643mm"
   sodipodi:docname="_melo_resources.svg"
   inkscape:version="1.2.2 (b0a8486541, 2022-12-01)"
   xmlns:inkscape="http://www.inkscape.org/namespaces/inkscape"
   xmlns:sodipodi="http://sodipodi.sourceforge.net/DTD/sodipodi-0.dtd"
   xmlns="http://www.w3.org/2000/svg"
   xmlns:svg="http://www.w3.org/2000/svg"
   xmlns:rdf="http://www.w3.org/1999/02/22-rdf-syntax-ns#"
   xmlns:cc="http://creativecommons.org/ns#"
   xmlns:dc="http://purl.org/dc/elements/1.1/">
  <sodipodi:namedview
     pagecolor="#ffffff"
     bordercolor="#666666"
     borderopacity="1"
     objecttolerance="10"
     gridtolerance="10"
     guidetolerance="10"
     inkscape:pageopacity="0"
     inkscape:pageshadow="2"
     inkscape:window-width="1916"
     inkscape:window-height="986"
     id="namedview3995"
     showgrid="false"
     inkscape:zoom="0.81890663"
     inkscape:cx="335.81362"
     inkscape:cy="443.88455"
     inkscape:window-x="0"
     inkscape:window-y="72"
     inkscape:window-maximized="0"
     inkscape:current-layer="icon"
     inkscape:showpageshadow="2"
     inkscape:pagecheckerboard="0"
     inkscape:deskcolor="#d1d1d1"
     inkscape:document-units="mm" />
  <defs
     id="defs2">
    <rect
       x="464.25101"
       y="619.48401"
       width="432.82816"
       height="232.15112"
       id="rect944" />
    <rect
       x="165.65384"
       y="593.80493"
       width="395.82651"
       height="126.7841"
       id="rect808" />
    <rect
       x="492.93005"
       y="553.74896"
       width="390.2558"
       height="66.474045"
       id="rect13415" />
    <filter
       style="color-interpolation-filters:sRGB"
       inkscape:label="Drop Shadow"
       id="filter517"
       x="-0.045949777"
       y="-0.082949025"
       width="1.0919327"
       height="1.1643887">
      <feFlood
         flood-opacity="0.501961"
         flood-color="rgb(0,0,0)"
         result="flood"
         id="feFlood507" />
      <feComposite
         in="flood"
         in2="SourceGraphic"
         operator="in"
         result="composite1"
         id="feComposite509" />
      <feGaussianBlur
         in="composite1"
         stdDeviation="3"
         result="blur"
         id="feGaussianBlur511" />
      <feOffset
         dx="0"
         dy="0"
         result="offset"
         id="feOffset513" />
      <feComposite
         in="SourceGraphic"
         in2="offset"
         operator="over"
         result="composite2"
         id="feComposite515" />
    </filter>
    <filter
       style="color-interpolation-filters:sRGB"
       inkscape:label="Drop Shadow"
       id="filter430"
       x="-0.11319299"
       y="-0.094186388"
       width="1.2270819"
       height="1.1866184">
      <feFlood
         flood-opacity="0.501961"
         flood-color="rgb(0,0,0)"
         result="flood"
         id="feFlood420" />
      <feComposite
         in="flood"
         in2="SourceGraphic"
         operator="in"
         result="composite1"
         id="feComposite422" />
      <feGaussianBlur
         in="composite1"
         stdDeviation="3"
         result="blur"
         id="feGaussianBlur424" />
      <feOffset
         dx="0"
         dy="0"
         result="offset"
         id="feOffset426" />
      <feComposite
         in="SourceGraphic"
         in2="offset"
         operator="over"
         result="composite2"
         id="feComposite428" />
    </filter>
  </defs>
  <metadata
     id="metadata5">
    <rdf:RDF>
      <cc:Work
         rdf:about="">
        <dc:format>image/svg+xml</dc:format>
        <dc:type
           rdf:resource="http://purl.org/dc/dcmitype/StillImage" />
      </cc:Work>
    </rdf:RDF>
  </metadata>
  <g
     transform="matrix(0.80043926,0,0,0.80043926,-51.944691,-102.65796)"
     id="full"
     inkscape:label="Full"
     style="display:inline;filter:url(#filter517)">
    <g
       aria-label="Resources "
       transform="scale(0.99552641,1.0044937)"
       id="header_text"
       style="font-size:15.8949px;font-family:Designosaur;-inkscape-font-specification:Designosaur;text-align:center;text-anchor:middle;fill:#444444;stroke:#444444;stroke-width:0.271362"
       inkscape:label="header">
      <path
         d="m 148.61009,230.51291 c 0.25432,0 0.25432,-0.0795 0.12716,-0.25432 l -2.44782,-3.62404 c 1.38286,-0.65169 2.25708,-2.01865 2.25708,-3.57635 0,-2.22529 -1.68486,-3.98962 -4.08499,-3.98962 h -3.02003 c -0.22253,0 -0.3179,0.0954 -0.3179,0.3179 v 10.80853 c 0,0.22253 0.0954,0.3179 0.3179,0.3179 h 1.36696 c 0.22253,0 0.3179,-0.0954 0.3179,-0.3179 v -3.16308 h 1.2398 l 2.01865,3.21077 c 0.11127,0.19073 0.25432,0.27021 0.47685,0.27021 z m -5.48374,-4.89563 v -5.13405 h 1.01727 c 1.5577,0.0159 2.40013,0.85832 2.40013,2.57497 0,1.71665 -0.84243,2.55908 -2.40013,2.55908 z"
         style="stroke-width:0.271363"
         id="path38" />
      <path
         d="m 156.01712,229.00289 c -0.0477,-0.0636 -0.0954,-0.12716 -0.41327,-0.0318 -0.65169,0.20664 -1.2557,0.39738 -1.8756,0.39738 -1.39875,0 -1.8756,-0.98549 -2.00276,-2.32066 h 3.25846 c 1.31927,0 1.73254,-0.36558 1.73254,-1.58949 0,-2.30476 -1.47822,-3.4174 -3.40151,-3.4174 -2.57497,0 -3.52866,1.97096 -3.52866,4.41878 0,2.22529 0.79474,4.24394 3.7353,4.24394 1.35106,0 2.51139,-0.42916 2.81339,-0.77885 0.12716,-0.14306 0.11127,-0.27022 0.0159,-0.41327 z m -4.29163,-3.29024 c 0.0954,-1.2557 0.50864,-2.33655 1.66897,-2.33655 0.84243,0 1.39875,0.85832 1.39875,1.79612 0,0.47685 -0.12716,0.54043 -0.6199,0.54043 z"
         style="stroke-width:0.271363"
         id="path40" />
      <path
         d="m 161.19887,227.31803 c 0.9219,0.28611 1.2398,0.49275 1.2398,0.98549 0,0.50863 -0.27022,1.06496 -1.58949,1.06496 -0.77885,0 -1.41465,-0.19074 -2.03455,-0.39738 -0.14305,-0.0477 -0.33379,-0.0795 -0.41327,0.0318 l -0.33379,0.50864 c -0.0954,0.14305 -0.0954,0.25432 0.0159,0.41327 0.30201,0.41327 1.52592,0.77885 2.86109,0.77885 1.74844,0 3.30614,-0.85833 3.30614,-2.57498 0,-1.2398 -0.42917,-2.00275 -1.81202,-2.40013 l -1.85971,-0.54042 c -0.44505,-0.12716 -0.6199,-0.41327 -0.6199,-0.77885 0,-0.6199 0.39738,-1.03317 1.33517,-1.03317 0.68349,0 1.2716,0.19074 1.84381,0.39737 0.14306,0.0477 0.34969,0.11127 0.41327,-0.0318 l 0.33379,-0.50864 c 0.15895,-0.23842 0.0636,-0.34968 0,-0.41326 -0.34968,-0.34969 -1.41464,-0.77885 -2.76571,-0.77885 -1.93918,0 -2.97235,1.09675 -2.97235,2.55908 0,1.04906 0.49275,1.93917 1.68486,2.30476 z"
         style="stroke-width:0.271363"
         id="path42" />
      <path
         d="m 169.36886,230.70365 c 3.05182,0 3.84656,-1.95508 3.84656,-4.32342 0,-2.35244 -0.79474,-4.3393 -3.84656,-4.3393 -3.05182,0 -3.84657,1.98686 -3.84657,4.3552 0,2.36834 0.79475,4.30752 3.84657,4.30752 z m 0,-1.43054 c -1.58949,0 -1.93918,-1.30339 -1.93918,-2.89288 0,-1.57359 0.34969,-2.90876 1.93918,-2.90876 1.58949,0 1.93918,1.33517 1.93918,2.90876 0,1.58949 -0.34969,2.89288 -1.93918,2.89288 z"
         style="stroke-width:0.271363"
         id="path44" />
      <path
         d="m 181.25823,230.51291 c 0.22253,0 0.3179,-0.0954 0.3179,-0.3179 v -7.62955 c 0,-0.22253 -0.0954,-0.3179 -0.3179,-0.3179 h -1.27159 c -0.22253,0 -0.3179,0.0954 -0.3179,0.3179 v 4.32341 c 0,1.63718 -0.54043,2.47961 -1.66896,2.47961 -1.09675,0 -1.44644,-1.09675 -1.44644,-2.32066 v -4.48236 c 0,-0.22253 -0.0954,-0.3179 -0.302,-0.3179 h -1.30339 c -0.20663,0 -0.302,0.0954 -0.302,0.3179 v 5.02279 c 0,1.98686 1.43054,3.1154 3.19488,3.1154 0.81064,0 1.73254,-0.41327 2.11402,-1.16033 h 0.0318 l 0.15895,0.65169 c 0.0477,0.22253 0.0954,0.3179 0.3179,0.3179 z"
         style="stroke-width:0.271363"
         id="path46" />
      <path
         d="m 184.7551,230.51291 c 0.22253,0 0.3179,-0.0954 0.3179,-0.3179 v -4.86384 c 0,-1.00138 0.52453,-1.5418 1.51001,-1.5418 0.30201,0 0.65169,0.17484 0.65169,-0.23843 v -1.19211 c 0,-0.22253 -0.0636,-0.23843 -0.2861,-0.23843 -0.68349,0.0159 -1.47823,0 -2.16171,1.04906 h -0.0318 l -0.15895,-0.604 c -0.0954,-0.20663 -0.0954,-0.3179 -0.3179,-0.3179 h -0.79474 c -0.22253,0 -0.3179,0.0954 -0.3179,0.3179 v 7.62955 c 0,0.22253 0.0954,0.3179 0.3179,0.3179 z"
         style="stroke-width:0.271363"
         id="path48" />
      <path
         d="m 193.89466,229.00289 c -0.0795,-0.11126 -0.23842,-0.0954 -0.41327,-0.0318 -0.49274,0.17485 -0.96959,0.39738 -1.58949,0.39738 -1.5418,0 -2.00275,-1.38286 -2.00275,-2.98825 0,-1.5577 0.44505,-3.00413 2.01865,-3.00413 0.69937,0 1.25569,0.28611 1.57359,0.39737 0.14306,0.0477 0.3338,0.0795 0.41327,-0.0318 l 0.33379,-0.50864 c 0.14306,-0.20663 0.0954,-0.31789 -0.0159,-0.41326 -0.3179,-0.28611 -1.31928,-0.77885 -2.38424,-0.77885 -3.03592,0 -3.84656,1.98686 -3.84656,4.32341 0,2.30476 0.79474,4.33931 3.68761,4.33931 1.35107,0 2.25708,-0.44506 2.54319,-0.77885 0.12716,-0.14306 0.11126,-0.27022 0.0159,-0.41327 z"
         style="stroke-width:0.271363"
         id="path50" />
      <path
         d="m 201.82622,229.00289 c -0.0477,-0.0636 -0.0954,-0.12716 -0.41327,-0.0318 -0.65169,0.20664 -1.2557,0.39738 -1.8756,0.39738 -1.39875,0 -1.8756,-0.98549 -2.00276,-2.32066 h 3.25846 c 1.31928,0 1.73254,-0.36558 1.73254,-1.58949 0,-2.30476 -1.47822,-3.4174 -3.40151,-3.4174 -2.57497,0 -3.52866,1.97096 -3.52866,4.41878 0,2.22529 0.79474,4.24394 3.7353,4.24394 1.35106,0 2.51139,-0.42916 2.8134,-0.77885 0.12715,-0.14306 0.11126,-0.27022 0.0159,-0.41327 z m -4.29163,-3.29024 c 0.0954,-1.2557 0.50864,-2.33655 1.66897,-2.33655 0.84243,0 1.39875,0.85832 1.39875,1.79612 0,0.47685 -0.12716,0.54043 -0.6199,0.54043 z"
         style="stroke-width:0.271363"
         id="path52" />
      <path
         d="m 207.00797,227.31803 c 0.9219,0.28611 1.2398,0.49275 1.2398,0.98549 0,0.50863 -0.27021,1.06496 -1.58949,1.06496 -0.77885,0 -1.41465,-0.19074 -2.03455,-0.39738 -0.14305,-0.0477 -0.33379,-0.0795 -0.41326,0.0318 l -0.3338,0.50864 c -0.0954,0.14305 -0.0954,0.25432 0.0159,0.41327 0.302,0.41327 1.52591,0.77885 2.86108,0.77885 1.74844,0 3.30614,-0.85833 3.30614,-2.57498 0,-1.2398 -0.42916,-2.00275 -1.81202,-2.40013 l -1.8597,-0.54042 c -0.44506,-0.12716 -0.6199,-0.41327 -0.6199,-0.77885 0,-0.6199 0.39737,-1.03317 1.33517,-1.03317 0.68348,0 1.27159,0.19074 1.84381,0.39737 0.14305,0.0477 0.34968,0.11127 0.41326,-0.0318 l 0.3338,-0.50864 c 0.15895,-0.23842 0.0636,-0.34968 0,-0.41326 -0.34969,-0.34969 -1.41465,-0.77885 -2.76572,-0.77885 -1.93917,0 -2.97234,1.09675 -2.97234,2.55908 0,1.04906 0.49274,1.93917 1.68486,2.30476 z"
         style="stroke-width:0.271363"
         id="path54" />
    </g>
    <path
       id="bar"
       style="fill:#444444;stroke:#444444;stroke-width:0.211298"
       inkscape:label="bar"
       d="m 121.88632,213.68074 h 108.29745 v 2.72598 H 121.88632 Z" />
    <g
       aria-label="Melo"
       transform="scale(1.0024814,0.99752475)"
       id="melo_text"
       style="font-size:52.6812px;font-family:Designosaur;-inkscape-font-specification:Designosaur;fill:#444444;stroke:#444444;stroke-width:0.274812"
       inkscape:label="text">
      <path
         d="m 160.91764,209.85043 c 0.73754,0 1.05362,-0.31608 1.05362,-1.05362 v -35.82322 c 0,-0.73753 -0.31608,-1.05362 -1.05362,-1.05362 h -4.26718 c -0.73753,0 -1.21166,0.26341 -1.58043,0.94826 l -12.53813,28.71126 -11.85327,-28.76394 c -0.36877,-0.63217 -0.8429,-0.89558 -1.58043,-0.89558 h -4.79399 c -0.73754,0 -1.05363,0.31609 -1.05363,1.05362 v 35.82322 c 0,0.73754 0.31609,1.05362 1.05363,1.05362 h 3.47696 c 0.73753,0 1.05362,-0.31608 1.05362,-1.05362 v -14.75074 l -0.52681,-10.58892 h 0.10536 l 10.16747,25.4977 c 0.36877,0.63218 0.8429,0.89558 1.58044,0.89558 h 3.42428 c 0.73753,0 1.21166,-0.2634 1.52775,-0.94826 l 10.6416,-25.44502 h 0.10537 l -0.52682,10.58892 v 14.75074 c 0,0.73754 0.31609,1.05362 1.05363,1.05362 z"
         style="stroke-width:0.274813"
         id="path58" />
      <path
         d="m 187.36365,204.84572 c -0.15804,-0.21073 -0.31608,-0.42145 -1.36971,-0.10536 -2.15993,0.68485 -4.16181,1.31703 -6.21638,1.31703 -4.63594,0 -6.21638,-3.26624 -6.63783,-7.69146 h 10.79965 c 4.37254,0 5.74225,-1.21167 5.74225,-5.26812 0,-7.63877 -4.89935,-11.32646 -11.27378,-11.32646 -8.53435,0 -11.69522,6.53247 -11.69522,14.64538 0,7.37537 2.63406,14.06588 12.38008,14.06588 4.4779,0 8.32363,-1.42239 9.32457,-2.58138 0.42145,-0.47413 0.36877,-0.89558 0.0527,-1.36971 z m -14.22392,-10.90501 c 0.31609,-4.16181 1.6858,-7.74413 5.53153,-7.74413 2.7921,0 4.63594,2.84478 4.63594,5.95297 0,1.58044 -0.42145,1.79116 -2.05456,1.79116 z"
         style="stroke-width:0.274813"
         id="path60" />
      <path
         d="m 202.58856,209.85043 c 0.73754,0 1.05363,-0.31608 1.05363,-1.05362 v -2.31797 c 0,-0.73754 -0.31609,-1.05363 -1.05363,-1.05363 h -0.36877 c -0.68485,0 -1.47507,-1.21166 -1.47507,-4.16181 v -29.34343 c 0,-0.73754 -0.31609,-1.05362 -1.05362,-1.05362 h -4.2145 c -0.73754,0 -1.05362,0.31608 -1.05362,1.05362 v 29.7122 c 0,5.53152 2.52869,8.21826 7.27,8.21826 z"
         style="stroke-width:0.274813"
         id="path62" />
      <path
         d="m 218.55095,210.48261 c 10.11479,0 12.74885,-6.47979 12.74885,-14.32929 0,-7.79682 -2.63406,-14.38197 -12.74885,-14.38197 -10.11479,0 -12.74885,6.58515 -12.74885,14.43465 0,7.8495 2.63406,14.27661 12.74885,14.27661 z m 0,-4.74131 c -5.26812,0 -6.4271,-4.31986 -6.4271,-9.58798 0,-5.21544 1.15898,-9.64066 6.4271,-9.64066 5.26812,0 6.42711,4.42522 6.42711,9.64066 0,5.26812 -1.15899,9.58798 -6.42711,9.58798 z"
         style="stroke-width:0.274813"
         id="path64" />
    </g>
    <path
       id="logo"
       d="m 101.35227,197.39368 c 0,0 -9.552478,-4.92043 -16.571665,-3.02381 -7.133452,1.9275 -12.739159,5.79796 -12.473214,12.66221 0.316766,8.17595 9.055156,12.41569 15.686013,13.60714 13.548196,2.43436 25.702376,-8.50447 25.702376,-8.50447 l -14.605803,-54.7908 c 0,0 13.268143,7.51646 20.221723,6.61457 6.40675,-0.83096 17.76496,-7.74851 17.76496,-7.74851 0,0 -4.32589,-7.80677 -2.64584,-14.55212 0,0 -11.03585,6.42332 -17.19799,6.9926 -8.1318,0.75124 -14.54965,-6.45149 -22.678568,-5.66967 -4.413588,0.42449 -9.071428,6.42562 -9.071428,6.42562 z"
       style="display:inline;fill:#dd7e19;fill-opacity:1;stroke:#dd7e19;stroke-width:0.265;stroke-linecap:butt;stroke-linejoin:miter;stroke-dasharray:none;stroke-opacity:1"
       inkscape:label="logo"
       sodipodi:insensitive="true" />
  </g>
</svg>
